PathFileType	4	(X/Y/Z)	C:\Users\Basilio\Documents\Thesis Gigler\squatting_fais\c3dfiles\038\SLS_front_pre5\markers_experimental.trc
DataRate	CameraRate	NumFrames	NumMarkers	Units	OrigDataRate	OrigDataStartFrame	OrigNumFrames
200.000000	200.000000	4	61	mm	200.000000	574	1532
Frame#	Time	FHD			LBHD			RBHD			C7			T10			CLAV			LSHO			LUUPA			LMUPA			LDUPA			LLEP			LMEP			LRAD			LUL			LRFIN			RSHO			RUPA1			RMUPA			RDUPA			RLEP			RMEP			RRAD			RUL			RUFIN			LASI			RASI			USACR			LSACR			RSACR			LTHI1			LTHI2			LTHI3			LTHI4			LLFC			LMFC			LTIB1			LTIB2			LTIB3			LTIB4			LLMAL			LMMAL			LHEE			LMT1			LMT2			LMT5			RTHI			RTHI2			RTHI3			RTHI4			RLFC			RMFC			RTIB1			RTIB2			RTIB3			RTIB4			RLMAL			RMMAL			RHEE			RMT1			RMT2			RMT5			
		X1	Y1	Z1	X2	Y2	Z2	X3	Y3	Z3	X4	Y4	Z4	X5	Y5	Z5	X6	Y6	Z6	X7	Y7	Z7	X8	Y8	Z8	X9	Y9	Z9	X10	Y10	Z10	X11	Y11	Z11	X12	Y12	Z12	X13	Y13	Z13	X14	Y14	Z14	X15	Y15	Z15	X16	Y16	Z16	X17	Y17	Z17	X18	Y18	Z18	X19	Y19	Z19	X20	Y20	Z20	X21	Y21	Z21	X22	Y22	Z22	X23	Y23	Z23	X24	Y24	Z24	X25	Y25	Z25	X26	Y26	Z26	X27	Y27	Z27	X28	Y28	Z28	X29	Y29	Z29	X30	Y30	Z30	X31	Y31	Z31	X32	Y32	Z32	X33	Y33	Z33	X34	Y34	Z34	X35	Y35	Z35	X36	Y36	Z36	X37	Y37	Z37	X38	Y38	Z38	X39	Y39	Z39	X40	Y40	Z40	X41	Y41	Z41	X42	Y42	Z42	X43	Y43	Z43	X44	Y44	Z44	X45	Y45	Z45	X46	Y46	Z46	X47	Y47	Z47	X48	Y48	Z48	X49	Y49	Z49	X50	Y50	Z50	X51	Y51	Z51	X52	Y52	Z52	X53	Y53	Z53	X54	Y54	Z54	X55	Y55	Z55	X56	Y56	Z56	X57	Y57	Z57	X58	Y58	Z58	X59	Y59	Z59	X60	Y60	Z60	X61	Y61	Z61	

575	2.87	-271.6365966796876	1717.513305664063	-1098.745483398438	-426.8511047363282	1666.998657226563	-1161.269165039063	-420.7497558593751	1654.662231445313	-1016.456665039063	-474.9832153320314	1485.322998046875	-1091.204956054688	-456.5067138671876	1203.18896484375	-1077.351196289063	-329.6251831054688	1474.489013671875	-1094.234985351563	-385.0550231933595	1507.165771484375	-1239.87060546875	-214.6517639160157	1451.615112304688	-1365.891479492188	-187.6758880615235	1484.344604492188	-1336.27685546875	-145.281478881836	1460.050537109375	-1370.705322265625	-83.37706756591798	1462.761596679688	-1369.036254882813	-73.69026184082033	1387.3779296875	-1349.473999023438	nan	nan	nan	209.3093872070313	1473.331176757813	-1314.865966796875	265.4010314941407	1479.305053710938	-1219.118530273438	-382.9654541015626	1501.877075195313	-950.9935302734377	-236.0911102294922	1470.837646484375	-817.0005493164065	-197.2530975341797	1479.483520507813	-845.2451782226565	-171.2785186767578	1465.9638671875	-792.5349731445315	-98.40058898925784	1462.296264648438	-775.6170043945315	-92.70438385009767	1382.92626953125	-787.9819335937502	179.0902862548828	1448.366821289063	-854.1104736328127	189.0847625732422	1468.905151367188	-787.1692504882815	260.3319091796876	1481.365356445313	-860.9866943359377	-259.8027038574219	1021.412780761719	-1156.939697265625	-308.1377258300782	1055.635131835938	-913.882019042969	-452.637664794922	1057.166870117188	-1063.763793945313	-457.1519470214845	1024.504760742188	-1089.541870117188	-465.8790283203126	1028.489501953125	-1033.3740234375	-224.4929351806641	702.5787353515626	-1197.983764648438	-177.9377593994141	631.3284301757814	-1186.618530273438	-135.4059753417969	646.5349121093751	-1163.432861328125	-196.8489837646485	577.1154174804689	-1169.07763671875	-186.7496185302735	518.5368652343751	-1156.030639648438	-184.4275360107422	520.9455566406251	-1039.93212890625	-194.8475646972657	336.0827331542969	-1064.544311523438	-244.8082885742188	299.1753845214844	-1127.143920898438	-210.9006805419922	287.7164916992188	-1095.580688476563	-247.5556030273438	220.3501434326172	-1059.324096679688	-363.0780639648438	112.6997375488282	-1073.705810546875	-324.4996032714844	127.3187332153321	-1001.269470214844	-416.6228637695314	93.51854705810548	-1016.3232421875	-215.8524322509766	43.86554718017579	-1016.378662109375	-208.5098724365235	47.17004776000977	-1067.219482421875	-256.1182861328126	35.00654602050782	-1111.174194335938	-225.3160400390626	818.7722778320315	-840.4501953125002	-161.1501770019532	799.702819824219	-838.263366699219	-136.8813781738282	821.345397949219	-845.499938964844	-133.4383087158203	718.5391845703126	-850.2346191406252	-34.85700988769532	623.9898681640626	-854.447692871094	-32.29940795898438	618.5214843750001	-974.5127563476565	110.8233413696289	512.2456054687501	-871.028503417969	98.71035003662112	402.780975341797	-832.031433105469	133.640121459961	433.8084411621095	-841.3367919921877	175.1077728271485	400.9381713867189	-866.980895996094	201.8977355957032	265.0744018554688	-831.142761230469	224.3968658447266	289.4946594238282	-910.7473754882815	195.5179595947266	187.630126953125	-894.4324951171877	357.0679626464844	331.4599609375001	-877.4049072265627	348.9367980957032	335.2756958007813	-830.5754394531252	329.8066406250001	291.7480773925782	-787.376159667969	
576	2.875	-271.9332580566407	1716.953125	-1098.960327148438	-427.0156555175782	1665.654418945313	-1161.443481445313	-420.803680419922	1653.816528320313	-1016.555053710938	-475.1086730957032	1484.394897460938	-1091.237426757813	-457.1019287109376	1202.237182617188	-1077.2548828125	-329.6580505371094	1473.5927734375	-1094.394165039063	-385.3079528808595	1506.219482421875	-1239.926025390625	-214.711654663086	1450.601318359375	-1365.773315429688	-187.8860778808594	1483.389770507813	-1336.357788085938	-144.9602508544922	1458.824951171875	-1370.71728515625	-83.50206756591798	1461.881713867188	-1369.050659179688	-73.99826049804689	1386.513671875	-1349.440795898438	nan	nan	nan	209.1394348144532	1472.512084960938	-1314.837646484375	265.4279785156251	1478.411743164063	-1219.144775390625	-383.0808105468751	1501.004516601563	-950.9560546875002	-236.1572418212891	1469.958618164063	-817.2534179687502	-197.3741455078126	1478.68701171875	-845.2730712890627	-171.3859100341797	1465.1396484375	-792.8823242187502	-98.51850128173831	1461.768310546875	-775.7028808593752	-92.86960601806642	1381.901733398438	-787.910583496094	179.044921875	1447.666015625	-854.1355590820315	189.0041961669922	1468.136962890625	-787.077331542969	260.2618713378907	1480.457397460938	-861.1437988281252	-260.0561218261719	1020.953308105469	-1156.96728515625	-308.3811950683594	1054.947143554688	-913.976501464844	-453.2407836914064	1056.213134765625	-1063.7490234375	-457.7236633300782	1023.275085449219	-1089.525756835938	-466.2358398437501	1027.498291015625	-1033.38427734375	-223.9397430419922	701.9942016601564	-1198.092529296875	-177.2376556396485	630.7612304687501	-1186.77392578125	-134.557113647461	646.1320190429689	-1163.583862304688	-196.349594116211	576.9304199218751	-1169.222045898438	-185.7703094482422	518.0907592773439	-1156.10205078125	-183.8597106933594	520.6137695312501	-1040.067016601563	-194.0997009277344	335.5208435058594	-1064.632568359375	-244.2644500732422	298.8312683105469	-1127.267822265625	-210.2901611328126	287.1517028808594	-1095.6982421875	-247.3044586181641	220.0934448242188	-1059.2265625	-363.1063842773438	112.414176940918	-1073.780639648438	-324.4273986816407	127.2707672119141	-1001.281555175781	-416.6040954589845	93.51315307617189	-1016.289489746094	-215.8516387939454	43.89594650268555	-1016.406188964844	-208.5269775390626	47.16029739379884	-1067.171752929688	-256.0830688476563	34.96498489379884	-1111.161254882813	-225.1858978271485	818.2226562500002	-840.3545532226565	-160.9219360351563	799.099792480469	-838.4255371093752	-136.8329467773438	820.8391723632815	-845.5611572265627	-133.2399291992188	717.9525756835939	-850.269470214844	-34.50777053833009	623.4608154296876	-854.481140136719	-32.36116027832032	617.9270629882814	-974.3367309570315	111.1942367553711	511.9757080078126	-871.208435058594	99.26502227783206	402.2315063476564	-832.0979614257815	134.0396118164063	433.351287841797	-841.4434204101565	175.7289123535157	400.6698608398439	-867.2480468750002	202.2966461181641	264.5728454589844	-831.5586547851565	224.6762084960938	289.5708923339844	-910.8544921875002	196.4089813232422	187.2960968017578	-894.5174560546877	357.7168884277344	331.4963073730469	-878.0850830078127	349.4924316406251	335.2591247558594	-830.8356933593752	330.2776184082032	291.8675231933594	-787.557800292969	
577	2.88	-271.8069458007813	1715.723388671875	-1099.088500976563	-427.1649475097657	1664.729614257813	-1161.49658203125	-420.761932373047	1652.786743164063	-1016.746704101563	-475.3224182128907	1483.506225585938	-1091.27978515625	-457.3545532226564	1201.369750976563	-1077.2802734375	-329.9750366210938	1472.595947265625	-1094.423217773438	-385.2109985351564	1505.257446289063	-1240.071166992188	-214.6666259765626	1449.66455078125	-1365.993896484375	-187.9562530517578	1482.4306640625	-1336.453247070313	-145.4963073730469	1458.052368164063	-1370.753540039063	-83.30117797851564	1460.501342773438	-1369.001586914063	-74.04451751708986	1385.011596679688	-1349.48388671875	nan	nan	nan	209.0638427734376	1471.4765625	-1314.950927734375	265.0229492187501	1477.647338867188	-1219.174072265625	-383.2657165527344	1500.08984375	-951.0708007812502	-236.3039245605469	1469.1904296875	-817.3923339843752	-197.557846069336	1477.850830078125	-845.5175781250002	-171.585678100586	1464.450805664063	-793.049499511719	-98.63497161865237	1461.087280273438	-775.7700195312502	-92.90829467773439	1381.1875	-787.9463500976565	178.8922729492188	1446.80224609375	-854.1494750976565	188.8735656738282	1467.4521484375	-787.1563720703127	259.9282531738282	1479.28466796875	-860.7813110351565	-260.5293884277344	1019.674865722656	-1157.1689453125	-308.8101806640626	1053.891723632813	-914.056335449219	-453.6183166503907	1055.153930664063	-1063.816772460938	-458.1080017089845	1022.458862304688	-1089.503173828125	-466.6961059570314	1026.549926757813	-1033.316284179688	-223.5959777832032	700.9791870117189	-1198.304077148438	-176.4056396484375	630.3342895507814	-1186.919311523438	-133.9726867675782	645.7266235351564	-1163.639892578125	-195.3180847167969	576.1601562500001	-1169.33056640625	-184.6334381103516	517.5932617187501	-1156.244873046875	-182.5414276123047	520.1079711914064	-1040.359375	-193.5733337402344	335.2041931152344	-1064.532836914063	-243.7692108154297	298.5256042480469	-1127.33447265625	-209.9380340576172	286.7565307617188	-1095.634399414063	-247.0802307128907	219.7745056152344	-1059.170654296875	-363.0382995605469	112.3816070556641	-1073.794677734375	-324.3241577148438	127.2948608398438	-1001.349243164063	-416.605194091797	93.50028228759767	-1016.286987304688	-215.8251953125001	43.93102645874024	-1016.39453125	-208.5296020507813	47.07867431640626	-1067.2021484375	-256.0541992187501	34.95677947998048	-1111.165161132813	-225.0122680664063	817.515808105469	-840.479675292969	-160.9111785888672	798.5818481445315	-839.1152954101565	-137.080307006836	820.5295410156252	-845.7973632812502	-133.0063934326172	717.3789672851564	-850.1946411132815	-34.22718811035157	623.0480957031251	-854.519226074219	-32.15850830078126	617.4233398437501	-974.3034667968752	111.5575027465821	511.7231750488282	-871.2929687500002	99.63706207275393	402.0410156250001	-832.0371704101565	134.4853515625	433.1127319335939	-841.5850219726565	176.1698455810547	400.4954528808595	-867.2531738281252	202.9460906982422	264.4534301757813	-831.6160278320315	225.1709289550782	289.1461181640626	-910.9554443359377	197.0872955322266	187.0484161376953	-894.4888916015627	358.2079467773438	331.4952087402344	-878.2993774414065	350.2687072753907	335.2518615722657	-831.1541137695315	330.8969116210938	291.7868957519532	-787.8008422851565	
578	2.885	-271.8677673339844	1714.578247070313	-1099.056274414063	-427.1267700195314	1664.056640625	-1161.630981445313	-420.8613891601564	1651.803344726563	-1016.831726074219	-475.3801574707032	1482.56884765625	-1091.498901367188	-457.6968994140626	1200.463989257813	-1077.3603515625	-330.0758666992188	1471.593872070313	-1094.477416992188	-385.484832763672	1504.365478515625	-1240.126342773438	-214.9645690917969	1448.575805664063	-1365.83984375	-188.1460876464844	1481.433715820313	-1336.466674804688	-145.3089904785157	1456.722778320313	-1370.808349609375	-83.80835723876955	1459.730834960938	-1369.102783203125	-74.05336761474611	1384.184448242188	-1349.448852539063	nan	nan	nan	208.9001922607422	1470.47998046875	-1314.944213867188	264.8338317871094	1477.027709960938	-1219.180419921875	-383.3055725097657	1499.247680664063	-951.270446777344	-236.3885192871094	1468.287963867188	-817.5821533203127	-197.6102294921876	1476.949096679688	-845.6104736328127	-171.9447021484375	1463.721313476563	-793.0180664062502	-98.76491546630862	1460.14208984375	-775.8345336914065	-93.05937957763673	1380.647827148438	-787.8814086914065	178.6942749023438	1445.843017578125	-854.104675292969	188.6173095703125	1466.617309570313	-787.0615234375002	259.8059692382813	1478.947387695313	-860.9586181640627	-260.8529968261719	1019.000183105469	-1157.068359375	-309.1759033203126	1052.941162109375	-914.1625976562502	-453.9988708496095	1053.999389648438	-1063.765380859375	-458.3612060546876	1021.228515625	-1089.520629882813	-466.800506591797	1025.068237304688	-1033.326171875	-223.0315551757813	700.3078613281251	-1198.418579101563	-175.8374176025391	629.7362060546876	-1186.85498046875	-133.3267974853516	645.2552490234376	-1163.713500976563	-194.4356231689454	575.6328735351564	-1169.508056640625	-183.9984436035157	516.6289672851564	-1156.442749023438	-181.69091796875	519.6885375976564	-1040.466430664063	-193.0722961425782	334.7971801757813	-1064.546997070313	-243.2501983642579	298.2039794921876	-1127.438720703125	-209.5647735595704	286.4427795410157	-1095.785888671875	-246.6504058837891	219.4392852783204	-1059.288208007813	-362.9991760253907	112.6359634399414	-1073.748413085938	-324.2394409179688	127.2803802490235	-1001.426818847656	-416.6105041503907	93.53348541259767	-1016.331115722656	-215.8261871337891	43.94246292114259	-1016.407409667969	-208.5174255371094	47.02919006347657	-1067.173095703125	-256.1057739257813	34.9511833190918	-1111.253784179688	-224.9038085937501	816.951843261719	-840.5244140625002	-160.5090026855469	798.376159667969	-838.6682128906252	-136.9534912109375	819.9918212890627	-845.8836669921877	-132.7156677246094	716.8876953125001	-850.2154541015627	-33.81859970092774	622.5830688476564	-854.5820312500002	-31.77110099792481	616.9540405273439	-974.5574951171877	111.9797058105469	511.7352600097657	-871.2168579101565	100.0985183715821	401.7969970703126	-832.0148925781252	134.8618774414063	432.8330383300782	-841.5916748046877	176.6742553710938	400.2080993652345	-867.4367675781252	203.6920166015626	264.5294799804688	-831.438659667969	225.5423736572266	288.9225463867188	-910.9763183593752	197.7742004394532	186.8505096435547	-894.5908203125002	358.5839843750001	331.4371032714844	-878.435974121094	350.8105163574219	335.2469482421876	-831.3397216796877	331.5153198242188	291.8676147460938	-788.0651855468752	
